<svg xmlns="http://www.w3.org/2000/svg" xmlns:xlink="http://www.w3.org/1999/xlink" viewBox="0 0 50 50" version="1.1" style="max-width:100%" height="100%">
<g id="surface1" style="" fill="white">
<path style="" d="M 16 0 L 16 2 L 6.5 2 C 5.117188 2 4 3.117188 4 4.5 L 4 47.5 C 4 48.882813 5.117188 50 6.5 50 L 43.5 50 C 44.882813 50 46 48.882813 46 47.5 L 46 4.5 C 46 3.117188 44.882813 2 43.5 2 L 34 2 L 34 0 Z M 18 2 L 32 2 L 32 2.8125 C 32 2.84375 32 2.875 32 2.90625 L 32 3 C 31.992188 3.074219 31.992188 3.144531 32 3.21875 L 32 6.8125 C 32 6.84375 32 6.875 32 6.90625 L 32 7 C 31.992188 7.074219 31.992188 7.144531 32 7.21875 L 32 8 L 18 8 L 18 7.1875 C 18.027344 7.054688 18.027344 6.914063 18 6.78125 L 18 3.1875 C 18.027344 3.054688 18.027344 2.914063 18 2.78125 Z M 6.5 4 L 16 4 L 16 6 L 9 6 L 9 45 L 41 45 L 41 6 L 34 6 L 34 4 L 43.5 4 C 43.714844 4 44 4.285156 44 4.5 L 44 47.5 C 44 47.714844 43.714844 48 43.5 48 L 6.5 48 C 6.285156 48 6 47.714844 6 47.5 L 6 4.5 C 6 4.285156 6.285156 4 6.5 4 Z M 11 8 L 16 8 L 16 10 L 34 10 L 34 8 L 39 8 L 39 43 L 11 43 Z M 26 13 L 26 15 L 35 15 L 35 13 Z M 18 15 L 18 18 L 15 18 L 15 20 L 18 20 L 18 23 L 20 23 L 20 20 L 23 20 L 23 18 L 20 18 L 20 15 Z M 26 18 L 26 20 L 35 20 L 35 18 Z M 26 23 L 26 25 L 35 25 L 35 23 Z M 15 28 L 15 30 L 35 30 L 35 28 Z M 15 33 L 15 35 L 35 35 L 35 33 Z M 15 38 L 15 40 L 35 40 L 35 38 Z " fill="currentColor"></path>
</g>
</svg>