<svg xmlns="http://www.w3.org/2000/svg" xmlns:xlink="http://www.w3.org/1999/xlink" viewBox="0 0 64 64" version="1.1" style="max-width:100%" height="100%">
<g id="surface1" style="" fill="currentColor">
<path style="" d="M 31 2 C 15.007813 2 2 15.007813 2 31 C 2 46.992188 15.007813 60 31 60 C 46.992188 60 60 46.992188 60 31 C 60 15.007813 46.992188 2 31 2 Z M 31 4 C 45.886719 4 58 16.113281 58 31 C 58 45.886719 45.886719 58 31 58 C 16.113281 58 4 45.886719 4 31 C 4 16.113281 16.113281 4 31 4 Z M 31 8 C 30.449219 8 30 8.449219 30 9 L 30 13 C 30 13.550781 30.449219 14 31 14 C 31.550781 14 32 13.550781 32 13 L 32 10.050781 C 43.113281 10.578125 52 19.757813 52 31 C 52 36.597656 49.824219 41.859375 45.875 45.824219 C 45.484375 46.214844 45.484375 46.847656 45.875 47.238281 C 46.070313 47.433594 46.328125 47.53125 46.582031 47.53125 C 46.839844 47.53125 47.09375 47.433594 47.289063 47.238281 C 51.617188 42.894531 54 37.128906 54 31 C 54 18.652344 44.21875 8.550781 32 8.023438 C 31.667969 8.011719 31.335938 8 31 8 Z M 15.441406 14.441406 C 15.1875 14.441406 14.933594 14.539063 14.734375 14.734375 C 10.390625 19.082031 8 24.855469 8 31 C 8 37.144531 10.394531 42.921875 14.738281 47.265625 C 14.933594 47.460938 15.191406 47.558594 15.449219 47.558594 C 15.703125 47.558594 15.960938 47.460938 16.15625 47.265625 C 16.546875 46.875 16.546875 46.242188 16.15625 45.851563 C 12.1875 41.882813 10 36.609375 10 31 C 10 25.390625 12.183594 20.117188 16.152344 16.152344 C 16.542969 15.757813 16.542969 15.128906 16.152344 14.734375 C 15.953125 14.539063 15.699219 14.441406 15.441406 14.441406 Z M 31 16 C 30.449219 16 30 16.449219 30 17 L 30 19 C 30 19.550781 30.449219 20 31 20 C 31.550781 20 32 19.550781 32 19 L 32 17 C 32 16.449219 31.550781 16 31 16 Z M 19 18 C 18.746094 18 18.488281 18.097656 18.292969 18.292969 C 17.902344 18.683594 17.902344 19.316406 18.292969 19.707031 L 28.300781 29.714844 C 28.113281 30.105469 28 30.539063 28 31 C 28 32.652344 29.347656 34 31 34 C 32.652344 34 34 32.652344 34 31 C 34 29.347656 32.652344 28 31 28 C 30.539063 28 30.105469 28.113281 29.714844 28.300781 L 19.707031 18.292969 C 19.511719 18.097656 19.253906 18 19 18 Z M 21.375 47.394531 C 20.984375 47.347656 20.589844 47.527344 20.386719 47.886719 L 19.386719 49.621094 C 19.109375 50.097656 19.273438 50.707031 19.75 50.984375 C 19.90625 51.074219 20.078125 51.121094 20.25 51.121094 C 20.59375 51.121094 20.929688 50.941406 21.113281 50.621094 L 22.113281 48.886719 C 22.390625 48.410156 22.230469 47.796875 21.75 47.519531 C 21.628906 47.453125 21.503906 47.410156 21.375 47.394531 Z M 40.625 47.394531 C 40.496094 47.410156 40.371094 47.453125 40.25 47.519531 C 39.769531 47.796875 39.609375 48.410156 39.886719 48.890625 L 40.886719 50.621094 C 41.070313 50.941406 41.40625 51.121094 41.75 51.121094 C 41.921875 51.121094 42.09375 51.078125 42.25 50.984375 C 42.730469 50.710938 42.890625 50.097656 42.613281 49.621094 L 41.613281 47.890625 C 41.40625 47.53125 41.011719 47.347656 40.625 47.394531 Z M 25.8125 49.34375 C 25.429688 49.398438 25.09375 49.675781 24.984375 50.078125 L 24.46875 52.011719 C 24.324219 52.542969 24.644531 53.089844 25.175781 53.234375 C 25.261719 53.257813 25.351563 53.269531 25.4375 53.269531 C 25.878906 53.269531 26.28125 52.972656 26.402344 52.527344 L 26.917969 50.59375 C 27.0625 50.0625 26.746094 49.511719 26.214844 49.371094 C 26.078125 49.332031 25.941406 49.324219 25.8125 49.34375 Z M 36.1875 49.34375 C 36.058594 49.324219 35.921875 49.332031 35.785156 49.371094 C 35.253906 49.511719 34.9375 50.0625 35.078125 50.59375 L 35.597656 52.527344 C 35.71875 52.972656 36.121094 53.269531 36.5625 53.269531 C 36.648438 53.269531 36.734375 53.257813 36.824219 53.234375 C 37.355469 53.089844 37.671875 52.542969 37.53125 52.011719 L 37.015625 50.078125 C 36.90625 49.675781 36.570313 49.398438 36.1875 49.34375 Z M 31 50 C 30.449219 50 30 50.449219 30 51 L 30 53 C 30 53.550781 30.449219 54 31 54 C 31.550781 54 32 53.550781 32 53 L 32 51 C 32 50.449219 31.550781 50 31 50 Z " fill="currentColor"></path>
</g>
</svg>